<svg width="60" height="60" viewBox="0 0 60 60" fill="none" xmlns="http://www.w3.org/2000/svg">
<ellipse cx="29.7854" cy="28.2292" rx="18.4133" ry="18.2292" fill="#2A54FF"/>
<rect x="6.11084" y="40.0919" width="47.3485" height="9.83796" rx="3.47222" fill="#02E887"/>
<path fill-rule="evenodd" clip-rule="evenodd" d="M43.7663 40.092C40.3893 43.9893 35.3784 46.4583 29.785 46.4583C24.1916 46.4583 19.1807 43.9893 15.8037 40.092H43.7663Z" fill="#021870"/>
<path fill-rule="evenodd" clip-rule="evenodd" d="M22.2837 28.4276C22.2837 29.3864 23.061 30.1637 24.0198 30.1637C24.9786 30.1637 25.7559 29.3864 25.7559 28.4276V24.1585C25.7559 23.1996 24.9786 22.4224 24.0198 22.4224C23.061 22.4224 22.2837 23.1996 22.2837 24.1585V28.4276ZM33.1988 28.4276C33.1988 29.3864 33.9761 30.1637 34.9349 30.1637C35.8938 30.1637 36.671 29.3864 36.671 28.4276V24.1585C36.671 23.1996 35.8938 22.4224 34.9349 22.4224C33.9761 22.4224 33.1988 23.1996 33.1988 24.1585V28.4276Z" fill="#02E887"/>
</svg>
