<svg width="60" height="60" viewBox="0 0 60 60" fill="none" xmlns="http://www.w3.org/2000/svg">
<circle cx="42.2569" cy="39.9653" r="11.2847" fill="#2A54FF"/>
<circle cx="24.0276" cy="23.4722" r="17.3611" fill="#02E887"/>
<path d="M29.236 27.5293C29.236 28.5613 28.9955 29.4282 28.5144 30.13C28.0457 30.818 27.429 31.3271 26.6642 31.6574C25.9118 31.9876 25.1039 32.1528 24.2404 32.1528C22.9823 32.1528 21.8475 31.8294 20.8361 31.1827C19.8246 30.5222 19.1524 29.5933 18.8193 28.3962L21.0026 27.0132C21.2986 27.7838 21.7303 28.3824 22.2977 28.809C22.8651 29.2356 23.5435 29.4488 24.333 29.4488C24.9744 29.4488 25.4801 29.3044 25.8501 29.0154C26.2325 28.7264 26.4237 28.3067 26.4237 27.7563C26.4237 27.316 26.2942 26.9513 26.0351 26.6623C25.7885 26.3734 25.4739 26.1463 25.0915 25.9812C24.7215 25.8161 24.2096 25.6234 23.5559 25.4033C22.6801 25.1143 21.9647 24.8322 21.4096 24.557C20.8546 24.268 20.3797 23.8415 19.985 23.2773C19.5903 22.7131 19.3929 21.97 19.3929 21.0481C19.3929 20.0711 19.6211 19.2455 20.0775 18.5712C20.5462 17.8832 21.1568 17.374 21.9092 17.0438C22.6739 16.6998 23.4942 16.5278 24.37 16.5278C25.5664 16.5278 26.5902 16.8305 27.4413 17.436C28.2924 18.0414 28.8413 18.8602 29.088 19.8922L26.9047 21.2751C26.6827 20.6284 26.3497 20.1261 25.9056 19.7684C25.4616 19.3968 24.9065 19.2111 24.2404 19.2111C23.636 19.2111 23.1427 19.3693 22.7603 19.6858C22.3902 19.9885 22.2052 20.3945 22.2052 20.9036C22.2052 21.2889 22.3224 21.6123 22.5568 21.8737C22.7911 22.1214 23.0871 22.3278 23.4449 22.4929C23.8149 22.6443 24.3083 22.8232 24.925 23.0296C25.8131 23.3186 26.547 23.6144 27.1268 23.9171C27.7065 24.2061 28.1999 24.6464 28.6069 25.2381C29.0263 25.8161 29.236 26.5798 29.236 27.5293Z" fill="#021870"/>
<path d="M30.9722 51.25H8.40272L8.40277 48.4722H24.3894V44.3056L30.9722 51.25Z" fill="#2A54FF"/>
</svg>
